<mxfile host="app.diagrams.net" modified="2023-07-04T10:36:31.656Z" agent="Mozilla/5.0 (Windows NT 10.0; Win64; x64) AppleWebKit/537.36 (KHTML, like Gecko) Chrome/114.0.0.0 Safari/537.36" etag="mLH-1beQXWc_IY6AMA7E" version="21.5.2" type="device">
  <diagram name="Page-1" id="Vt7W4lfbS8Xf7GSGgCyh">
    <mxGraphModel dx="880" dy="427" grid="1" gridSize="10" guides="1" tooltips="1" connect="1" arrows="1" fold="1" page="1" pageScale="1" pageWidth="827" pageHeight="1169" math="0" shadow="0">
      <root>
        <mxCell id="0" />
        <mxCell id="1" parent="0" />
        <mxCell id="RfPNdLiQ8nAg31v11Z92-1" value="" style="whiteSpace=wrap;html=1;aspect=fixed;" vertex="1" parent="1">
          <mxGeometry x="20" y="20" width="410" height="410" as="geometry" />
        </mxCell>
        <mxCell id="RfPNdLiQ8nAg31v11Z92-2" value="&lt;b&gt;&lt;font style=&quot;font-size: 16px;&quot;&gt;manage energy system&lt;/font&gt;&lt;/b&gt;" style="ellipse;whiteSpace=wrap;html=1;" vertex="1" parent="1">
          <mxGeometry x="90" y="60" width="220" height="80" as="geometry" />
        </mxCell>
        <mxCell id="RfPNdLiQ8nAg31v11Z92-3" value="&lt;b&gt;&lt;font style=&quot;font-size: 15px;&quot;&gt;monitor security system&lt;/font&gt;&lt;/b&gt;" style="ellipse;whiteSpace=wrap;html=1;" vertex="1" parent="1">
          <mxGeometry x="90" y="150" width="220" height="80" as="geometry" />
        </mxCell>
        <mxCell id="RfPNdLiQ8nAg31v11Z92-4" value="&lt;b&gt;&lt;font style=&quot;font-size: 17px;&quot;&gt;control tempreture&lt;/font&gt;&lt;/b&gt;" style="ellipse;whiteSpace=wrap;html=1;" vertex="1" parent="1">
          <mxGeometry x="90" y="250" width="220" height="80" as="geometry" />
        </mxCell>
        <mxCell id="RfPNdLiQ8nAg31v11Z92-5" value="&lt;b&gt;&lt;font style=&quot;font-size: 17px;&quot;&gt;control&amp;nbsp; lighting&lt;/font&gt;&lt;/b&gt;" style="ellipse;whiteSpace=wrap;html=1;" vertex="1" parent="1">
          <mxGeometry x="100" y="340" width="220" height="80" as="geometry" />
        </mxCell>
        <mxCell id="RfPNdLiQ8nAg31v11Z92-8" value="Actor" style="shape=umlActor;verticalLabelPosition=bottom;verticalAlign=top;html=1;outlineConnect=0;" vertex="1" parent="1">
          <mxGeometry x="500" y="170" width="60" height="100" as="geometry" />
        </mxCell>
        <mxCell id="RfPNdLiQ8nAg31v11Z92-9" value="Actor" style="shape=umlActor;verticalLabelPosition=bottom;verticalAlign=top;html=1;outlineConnect=0;" vertex="1" parent="1">
          <mxGeometry x="710" y="170" width="60" height="100" as="geometry" />
        </mxCell>
        <mxCell id="RfPNdLiQ8nAg31v11Z92-11" value="" style="endArrow=classic;html=1;rounded=0;" edge="1" parent="1">
          <mxGeometry width="50" height="50" relative="1" as="geometry">
            <mxPoint x="680" y="230" as="sourcePoint" />
            <mxPoint x="570" y="230" as="targetPoint" />
          </mxGeometry>
        </mxCell>
        <mxCell id="RfPNdLiQ8nAg31v11Z92-12" value="" style="endArrow=none;html=1;rounded=0;" edge="1" parent="1">
          <mxGeometry width="50" height="50" relative="1" as="geometry">
            <mxPoint x="320" y="380" as="sourcePoint" />
            <mxPoint x="470" y="240" as="targetPoint" />
          </mxGeometry>
        </mxCell>
        <mxCell id="RfPNdLiQ8nAg31v11Z92-13" value="" style="endArrow=none;html=1;rounded=0;" edge="1" parent="1">
          <mxGeometry width="50" height="50" relative="1" as="geometry">
            <mxPoint x="310" y="290" as="sourcePoint" />
            <mxPoint x="470" y="230" as="targetPoint" />
          </mxGeometry>
        </mxCell>
        <mxCell id="RfPNdLiQ8nAg31v11Z92-14" value="" style="endArrow=none;html=1;rounded=0;" edge="1" parent="1">
          <mxGeometry width="50" height="50" relative="1" as="geometry">
            <mxPoint x="310" y="190" as="sourcePoint" />
            <mxPoint x="470" y="230" as="targetPoint" />
          </mxGeometry>
        </mxCell>
        <mxCell id="RfPNdLiQ8nAg31v11Z92-15" value="" style="endArrow=none;html=1;rounded=0;" edge="1" parent="1">
          <mxGeometry width="50" height="50" relative="1" as="geometry">
            <mxPoint x="310" y="100" as="sourcePoint" />
            <mxPoint x="470" y="220" as="targetPoint" />
          </mxGeometry>
        </mxCell>
      </root>
    </mxGraphModel>
  </diagram>
</mxfile>
